<?xml version="1.0" encoding="UTF-8"?>
<!DOCTYPE svg PUBLIC "-//W3C//DTD SVG 1.1//EN" "http://www.w3.org/Graphics/SVG/1.1/DTD/svg11.dtd">
<!-- Creator: CorelDRAW X6 -->
<svg xmlns="http://www.w3.org/2000/svg" xml:space="preserve" width="5.82677in" height="4.13386in" version="1.1" style="shape-rendering:geometricPrecision; text-rendering:geometricPrecision; image-rendering:optimizeQuality; fill-rule:evenodd; clip-rule:evenodd"
viewBox="0 0 5827 4134"
 xmlns:xlink="http://www.w3.org/1999/xlink">
 <defs>
  <style type="text/css">
   <![CDATA[
    .fil0 {fill:none}
    .fil1 {fill:#AD3E44}
   ]]>
  </style>
 </defs>
 <g id="Layer_x0020_1">
  <metadata id="CorelCorpID_0Corel-Layer"/>
  <g id="_477278304">
   <rect class="fil0" width="5827" height="4134"/>
   <g>
    <path class="fil1" d="M2710 1327l-314 0 325 852 355 0 333 -852 -307 0 -198 557 -194 -557zm-908 340c0,-127 26,-198 150,-198 120,0 150,56 150,198l-299 0zm161 381c-131,0 -161,-56 -161,-213l587 0c0,-378 -90,-535 -426,-535 -366,0 -464,127 -464,456 0,321 135,475 445,475 307,0 419,-112 426,-288l-269 0c0,71 -26,105 -138,105zm-789 -721l-288 0 0 852 576 0 0 -202 -288 0 0 -650zm2269 1521c-250,64 -415,127 -523,187 -340,-153 -710,-235 -1065,-235 -437,0 -834,112 -1170,273l-475 -2329 3233 0 0 2105z"/>
    <path class="fil1" d="M4646 3196c0,-11 -15,-19 -52,-19l0 41c26,0 52,0 52,-22zm-86 112l0 -164 45 0c45,0 78,11 78,52 0,19 -11,34 -37,49l30 64 -30 0 -26 -49 -26 0 0 49 -34 0zm194 -82c0,-75 -60,-135 -138,-135 -79,0 -138,60 -138,135 0,75 64,138 138,138 78,0 138,-64 138,-138zm-138 -165c90,0 164,75 164,165 0,90 -75,164 -164,164 -90,0 -164,-71 -164,-164 0,-90 75,-165 164,-165zm-232 -1151l-303 0c4,206 112,288 441,288 307,0 430,-67 430,-280 0,-336 -568,-168 -568,-370 0,-49 56,-90 131,-90 78,0 108,34 127,105l288 0c-4,-179 -108,-262 -396,-262 -299,0 -437,82 -437,269 0,370 568,172 568,381 0,64 -34,93 -116,93 -97,0 -157,-37 -164,-135zm-400 -531l-15 86c90,-56 127,-105 127,-168 0,-71 -49,-108 -120,-108 -71,0 -116,41 -116,101 0,78 52,90 123,90zm-493 -56l0 856 280 0 0 -856 -280 0zm-52 -579l2179 0 -512 2329c-336,-194 -643,-277 -1088,-277 -243,0 -407,22 -579,52z"/>
   </g>
  </g>
 </g>
</svg>
