<svg id="Layer_1" data-name="Layer 1" xmlns="http://www.w3.org/2000/svg" viewBox="0 0 342.72 108.73"><defs><style>.cls-1,.cls-2{fill:#002856;}.cls-2{stroke:#002856;stroke-miterlimit:10;stroke-width:0.25px;}</style></defs><title>new rl logo web</title><path class="cls-1" d="M306.71,109c-14.64.26-27.25-3.77-52.69-10.17s-39.08-2.09-41.44-1.45c15.09-3.64,38.51,3.92,42.68,5.1,22.63,7,35.92,11.06,50.9,11.06,35.58,0,41.78-27.44,41.78-27.44-8,20.29-26.57,22.63-41.22,22.89" transform="translate(-12.45 -4.86)"/><path class="cls-1" d="M292.18,102.4c-7.08,0-13.14-2.09-25.39-5.4s-18.87-1.37-20-1.08c7.32-1.63,18.59,2.24,20.58,2.84,10.89,3.62,17.28,5.69,24.53,5.83,17.19,0.33,20.38-12.88,20.38-12.88-4,9.73-13,10.7-20.08,10.69" transform="translate(-12.45 -4.86)"/><path class="cls-1" d="M290.9,98.72c-4,0-7.49-1.19-14.48-3.08S265.65,94.85,265,95c4.17-.94,10.59,1.27,11.74,1.63,6.22,2,9.87,3.23,14,3.3,9.81,0.19,11.63-7.35,11.63-7.35-2.29,5.56-7.42,6.1-11.45,6.1" transform="translate(-12.45 -4.86)"/><path class="cls-1" d="M44.61,52.64a18.68,18.68,0,0,0,3.26-10.46,17.35,17.35,0,0,0-5-12.5c-3.22-3.2-7.58-4.88-13-5H12.47V79.56h6.08V30.78H29c4.23,0.12,7.38,1.29,9.36,3.48a11.38,11.38,0,0,1,.25,15c-1.78,2.12-4.45,3.26-7.91,3.37H24.25L40.78,79.56h7.5L35.1,58.35A13,13,0,0,0,44.61,52.64Z" transform="translate(-12.45 -4.86)"/><path class="cls-1" d="M93,60.2C93,53.46,91,47.86,87.32,43.55S78.45,36.93,72,36.78c-7.36.25-12.94,2.57-16.59,6.88A22.06,22.06,0,0,0,50,58.24c0.15,6.45,2.27,11.8,6.3,15.92a21.72,21.72,0,0,0,15.46,6.48h0a20.72,20.72,0,0,0,12.92-4.58,22.62,22.62,0,0,0,6.94-9.56l0.25-.7H85l-0.14.31a14.37,14.37,0,0,1-13.7,8.71c-4.67-.21-8.33-1.87-10.86-4.92a15.42,15.42,0,0,1-3.87-9.17H93V60.2ZM71.41,42.57C76.14,42.76,79.72,44.27,82,47a18.56,18.56,0,0,1,4.18,8.35H56.61a16,16,0,0,1,4.33-8.73C63.41,44.07,66.93,42.69,71.41,42.57Z" transform="translate(-12.45 -4.86)"/><polygon class="cls-1" points="98.23 65.08 85.6 33.15 79.11 33.15 95.29 74.69 100.74 74.69 117.8 33.15 111.18 33.15 98.23 65.08"/><rect class="cls-1" x="120.18" y="33.15" width="6.08" height="41.55"/><polygon class="cls-1" points="151.14 33.15 143.35 33.15 143.35 19.84 137.26 19.84 137.26 33.15 129.47 33.15 129.47 39.38 137.26 39.38 137.26 74.69 143.35 74.69 143.35 39.38 151.14 39.38 151.14 33.15"/><path class="cls-1" d="M198.68,43.31a20.16,20.16,0,0,0-6.13-4.4,21,21,0,0,0-8.88-2.12c-6.76.23-12.12,2.59-15.93,7A23.18,23.18,0,0,0,161.92,59c0,4.59,1.68,9.29,5.06,14s8.76,7.31,15.91,7.71h0a22.56,22.56,0,0,0,10-2.24,20.82,20.82,0,0,0,5.74-4.35l-0.13,5.51h6.1V38h-6.1Zm0,15.36a17.38,17.38,0,0,1-4.13,10.83,14.42,14.42,0,0,1-11.05,5.32c-5-.21-8.83-2-11.35-5.29A16.82,16.82,0,0,1,172.25,48c2.57-3.31,6.42-5.09,11.44-5.32a14.2,14.2,0,0,1,11,5.17A17.2,17.2,0,0,1,198.72,58.67Z" transform="translate(-12.45 -4.86)"/><polygon class="cls-1" points="204.04 19.84 197.96 19.84 197.96 74.69 223.14 74.69 223.14 68.72 204.04 68.72 204.04 19.84"/><path class="cls-1" d="M270.86,43.31a20.17,20.17,0,0,0-6.13-4.4,21,21,0,0,0-8.88-2.12c-6.76.23-12.12,2.59-15.93,7A23.18,23.18,0,0,0,234.09,59c0,4.59,1.68,9.29,5.06,14s8.77,7.31,15.91,7.71h0a22.56,22.56,0,0,0,10-2.24,20.82,20.82,0,0,0,5.74-4.35l-0.13,5.51h6.1V38h-6.1Zm0,15.36a17.37,17.37,0,0,1-4.13,10.83,14.42,14.42,0,0,1-11.05,5.32c-5-.21-8.83-2-11.35-5.29A16.82,16.82,0,0,1,244.43,48c2.57-3.31,6.42-5.09,11.44-5.32a14.2,14.2,0,0,1,11,5.17A17.2,17.2,0,0,1,270.9,58.67Z" transform="translate(-12.45 -4.86)"/><path class="cls-1" d="M298.77,55.5A32.71,32.71,0,0,1,292.42,53a5,5,0,0,1-2.61-4.68,5.72,5.72,0,0,1,1.55-3.8,5.37,5.37,0,0,1,4-1.8,6,6,0,0,1,4.4,1.64,5.47,5.47,0,0,1,1.5,3.95v0.53H308V48.3a11.31,11.31,0,0,0-3.33-8.41c-2.15-2-5.11-3.08-8.81-3.11-4.16.15-7.31,1.48-9.37,3.94a12.13,12.13,0,0,0-3.07,7.9c0.05,3.7,1.07,6.41,3,8.06A18.67,18.67,0,0,0,293,60.22,27.89,27.89,0,0,1,299.23,63c1.72,1.05,2.6,2.79,2.7,5.29a6.59,6.59,0,0,1-1.72,4.45,6.67,6.67,0,0,1-5.08,2.07,6.35,6.35,0,0,1-5.42-2.62A10,10,0,0,1,288,66.32V65.79H281.6v0.52a15.67,15.67,0,0,0,3.18,9.6c2.17,2.93,5.58,4.52,10.15,4.72h0c4.27-.15,7.64-1.46,10-3.89A12.27,12.27,0,0,0,308.6,68c-0.11-4-1.16-7-3.14-8.75A16.87,16.87,0,0,0,298.77,55.5Z" transform="translate(-12.45 -4.86)"/><path class="cls-1" d="M345,42.48c-2.66-3.41-6.86-5.23-12.48-5.4a18.81,18.81,0,0,0-8.4,1.72A13.89,13.89,0,0,0,319.94,42V24.7h-6.08V79.56h6.08V55.9a15,15,0,0,1,2.44-8.58c1.67-2.67,4.85-4.11,9.41-4.3,3.85,0.09,6.69,1.22,8.45,3.33a11.87,11.87,0,0,1,2.64,7.89V79.56H349V54.09A18.25,18.25,0,0,0,345,42.48Z" transform="translate(-12.45 -4.86)"/><path class="cls-1" d="M134.5,26.83c-0.77-14.76,6.31-8.16,9.23-22,4.68,10.88-1.79,21.83-9.23,22" transform="translate(-12.45 -4.86)"/><path class="cls-2" d="M20.6,88.48a3.07,3.07,0,0,0-.76-0.83,3.41,3.41,0,0,0-1-.51A3.66,3.66,0,0,0,17.71,87a3.93,3.93,0,0,0-1.86.41,3.69,3.69,0,0,0-1.27,1.09A4.71,4.71,0,0,0,13.85,90a6.6,6.6,0,0,0,0,3.5A4.69,4.69,0,0,0,14.58,95a3.69,3.69,0,0,0,1.27,1.09,3.93,3.93,0,0,0,1.86.41,3.31,3.31,0,0,0,1.37-.27,3.25,3.25,0,0,0,1.05-.75,3.86,3.86,0,0,0,.72-1.11A4.62,4.62,0,0,0,21.21,93h1a5.89,5.89,0,0,1-.47,1.81,4.47,4.47,0,0,1-.95,1.37,4,4,0,0,1-1.37.87,4.78,4.78,0,0,1-1.75.31,5.14,5.14,0,0,1-2.25-.47,4.67,4.67,0,0,1-1.61-1.24,5.28,5.28,0,0,1-1-1.8,7.39,7.39,0,0,1,0-4.3,5.37,5.37,0,0,1,1-1.81,4.63,4.63,0,0,1,1.61-1.25,5.45,5.45,0,0,1,3.77-.24,4.39,4.39,0,0,1,1.34.68,4,4,0,0,1,1,1.11,3.71,3.71,0,0,1,.51,1.51h-1A3.49,3.49,0,0,0,20.6,88.48Z" transform="translate(-12.45 -4.86)"/><path class="cls-2" d="M37,89.6a5.38,5.38,0,0,1,1-1.81,4.63,4.63,0,0,1,1.61-1.25,5.66,5.66,0,0,1,4.49,0,4.65,4.65,0,0,1,1.6,1.25,5.37,5.37,0,0,1,1,1.81,7.39,7.39,0,0,1,0,4.3,5.28,5.28,0,0,1-1,1.8,4.69,4.69,0,0,1-1.6,1.24,5.65,5.65,0,0,1-4.49,0A4.67,4.67,0,0,1,38,95.7a5.29,5.29,0,0,1-1-1.8A7.39,7.39,0,0,1,37,89.6Zm1,3.9A4.69,4.69,0,0,0,38.71,95,3.69,3.69,0,0,0,40,96.13a3.93,3.93,0,0,0,1.86.41,3.88,3.88,0,0,0,1.85-.41A3.71,3.71,0,0,0,45,95a4.69,4.69,0,0,0,.73-1.54,6.6,6.6,0,0,0,0-3.5A4.7,4.7,0,0,0,45,88.46a3.71,3.71,0,0,0-1.27-1.09A3.88,3.88,0,0,0,41.84,87a3.93,3.93,0,0,0-1.86.41,3.69,3.69,0,0,0-1.27,1.09A4.71,4.71,0,0,0,38,90,6.6,6.6,0,0,0,38,93.5Z" transform="translate(-12.45 -4.86)"/><path class="cls-2" d="M62.78,95a2.3,2.3,0,0,0,.76.9,3.14,3.14,0,0,0,1.14.48,6.46,6.46,0,0,0,1.4.15A3.94,3.94,0,0,0,67,96.42,3.23,3.23,0,0,0,67.94,96a2.39,2.39,0,0,0,.72-0.69,1.74,1.74,0,0,0,.29-1,1.49,1.49,0,0,0-.21-0.79A1.88,1.88,0,0,0,68.22,93a3.18,3.18,0,0,0-.72-0.37,7.25,7.25,0,0,0-.78-0.24l-2.42-.59a7.19,7.19,0,0,1-.92-0.31A2.61,2.61,0,0,1,62.58,91,2.31,2.31,0,0,1,62,90.22a2.55,2.55,0,0,1-.21-1.08A3.44,3.44,0,0,1,62,88.21a2.58,2.58,0,0,1,.57-1,3.33,3.33,0,0,1,1.15-.8,4.61,4.61,0,0,1,1.88-.33,5.48,5.48,0,0,1,1.54.21,3.79,3.79,0,0,1,1.28.64,3.08,3.08,0,0,1,1.21,2.53h-1a2.53,2.53,0,0,0-.28-1.09,2.44,2.44,0,0,0-.66-0.78,2.87,2.87,0,0,0-.93-0.47A3.77,3.77,0,0,0,65.6,87a4.55,4.55,0,0,0-1,.11,2.57,2.57,0,0,0-.87.37,1.9,1.9,0,0,0-.6.66,2.08,2.08,0,0,0-.23,1,1.57,1.57,0,0,0,.13.66,1.39,1.39,0,0,0,.36.48,1.87,1.87,0,0,0,.53.32,4,4,0,0,0,.63.2l2.65,0.66a7.68,7.68,0,0,1,1.09.37,3.61,3.61,0,0,1,.9.55,2.33,2.33,0,0,1,.61.8A2.69,2.69,0,0,1,70,94.31a4.16,4.16,0,0,1,0,.49,2.48,2.48,0,0,1-.18.65,3.26,3.26,0,0,1-.41.69,2.59,2.59,0,0,1-.73.63,4.23,4.23,0,0,1-1.15.46,6.73,6.73,0,0,1-1.65.18A6.86,6.86,0,0,1,64,97.19a3.84,3.84,0,0,1-1.4-.68,3,3,0,0,1-.89-1.17,3.85,3.85,0,0,1-.27-1.72h1A3.07,3.07,0,0,0,62.78,95Z" transform="translate(-12.45 -4.86)"/><path class="cls-2" d="M86.59,86.31l3.61,9.55L94,86.31h1.52V97.19h-1V87.78h0l-3.72,9.41h-1l-3.58-9.41h0v9.41h-1V86.31h1.53Z" transform="translate(-12.45 -4.86)"/><path class="cls-2" d="M118.77,86.31v0.88h-6.48v3.94h6.07V92h-6.07v4.3h6.56v0.88h-7.6V86.31h7.52Z" transform="translate(-12.45 -4.86)"/><path class="cls-2" d="M141.2,86.31v0.88h-3.8v10h-1v-10h-3.78V86.31h8.62Z" transform="translate(-12.45 -4.86)"/><path class="cls-2" d="M156.79,86.31V97.19h-1V86.31h1Z" transform="translate(-12.45 -4.86)"/><path class="cls-2" d="M180,88.48a3.07,3.07,0,0,0-.76-0.83,3.4,3.4,0,0,0-1-.51,3.66,3.66,0,0,0-1.14-.18,3.93,3.93,0,0,0-1.86.41A3.69,3.69,0,0,0,174,88.46a4.7,4.7,0,0,0-.73,1.53,6.6,6.6,0,0,0,0,3.5A4.69,4.69,0,0,0,174,95a3.69,3.69,0,0,0,1.27,1.09,3.93,3.93,0,0,0,1.86.41,3.31,3.31,0,0,0,1.37-.27,3.25,3.25,0,0,0,1.05-.75,3.85,3.85,0,0,0,.72-1.11,4.62,4.62,0,0,0,.35-1.36h1a5.9,5.9,0,0,1-.47,1.81,4.47,4.47,0,0,1-.95,1.37,4,4,0,0,1-1.37.87,4.78,4.78,0,0,1-1.75.31,5.14,5.14,0,0,1-2.25-.47,4.66,4.66,0,0,1-1.61-1.24,5.28,5.28,0,0,1-1-1.8,7.39,7.39,0,0,1,0-4.3,5.37,5.37,0,0,1,1-1.81,4.63,4.63,0,0,1,1.61-1.25,5.45,5.45,0,0,1,3.77-.24A4.4,4.4,0,0,1,180,87a4,4,0,0,1,1,1.11,3.72,3.72,0,0,1,.51,1.51h-1A3.49,3.49,0,0,0,180,88.48Z" transform="translate(-12.45 -4.86)"/><path class="cls-2" d="M197.45,95a2.3,2.3,0,0,0,.75.9,3.14,3.14,0,0,0,1.14.48,6.46,6.46,0,0,0,1.4.15,3.94,3.94,0,0,0,.93-0.12,3.25,3.25,0,0,0,.94-0.39,2.4,2.4,0,0,0,.72-0.69,1.75,1.75,0,0,0,.29-1,1.48,1.48,0,0,0-.21-0.79,1.89,1.89,0,0,0-.53-0.56,3.17,3.17,0,0,0-.72-0.37,7.28,7.28,0,0,0-.78-0.24L199,91.76a7.23,7.23,0,0,1-.92-0.31,2.61,2.61,0,0,1-.78-0.49,2.32,2.32,0,0,1-.54-0.75,2.55,2.55,0,0,1-.21-1.08,3.46,3.46,0,0,1,.15-0.93,2.59,2.59,0,0,1,.57-1,3.33,3.33,0,0,1,1.15-.8,4.61,4.61,0,0,1,1.88-.33,5.48,5.48,0,0,1,1.54.21,3.79,3.79,0,0,1,1.28.64,3.08,3.08,0,0,1,1.21,2.53h-1a2.52,2.52,0,0,0-.28-1.09,2.44,2.44,0,0,0-.66-0.78,2.86,2.86,0,0,0-.93-0.47,3.77,3.77,0,0,0-1.11-.16,4.54,4.54,0,0,0-1,.11,2.57,2.57,0,0,0-.87.37,1.9,1.9,0,0,0-.6.66,2.09,2.09,0,0,0-.23,1,1.58,1.58,0,0,0,.13.66,1.39,1.39,0,0,0,.36.48,1.89,1.89,0,0,0,.53.32,4,4,0,0,0,.63.2l2.65,0.66a7.67,7.67,0,0,1,1.09.37,3.6,3.6,0,0,1,.9.55,2.32,2.32,0,0,1,.61.8,2.69,2.69,0,0,1,.22,1.14,4,4,0,0,1,0,.49,2.47,2.47,0,0,1-.18.65,3.28,3.28,0,0,1-.41.69,2.59,2.59,0,0,1-.73.63,4.23,4.23,0,0,1-1.15.46,6.73,6.73,0,0,1-1.65.18,6.87,6.87,0,0,1-1.79-.22,3.85,3.85,0,0,1-1.4-.68,3,3,0,0,1-.89-1.17,3.85,3.85,0,0,1-.27-1.72h1A3,3,0,0,0,197.45,95Z" transform="translate(-12.45 -4.86)"/><path class="cls-1" d="M352.51,37.86a2.66,2.66,0,1,1-2.66,2.66A2.66,2.66,0,0,1,352.51,37.86Zm0,4.94a2.28,2.28,0,1,0-2.27-2.27A2.27,2.27,0,0,0,352.51,42.8ZM351.94,42h-0.39V39h1.18a0.79,0.79,0,0,1,1,.84,0.83,0.83,0,0,1-.78.87L353.83,42H353.4l-0.92-1.34h-0.55V42Zm0-1.69h0.49c0.42,0,.88,0,0.88-0.53a0.57,0.57,0,0,0-.68-0.5h-0.69v1Z" transform="translate(-12.45 -4.86)"/></svg>